<mxfile host="app.diagrams.net" modified="2023-10-16T02:20:03.055Z" agent="Mozilla/5.0 (Windows NT 10.0; Win64; x64; rv:109.0) Gecko/20100101 Firefox/118.0" etag="SUfBkpR89pWFgZPGO7BM" version="22.0.4" type="github">
  <diagram id="C5RBs43oDa-KdzZeNtuy" name="Page-1">
    <mxGraphModel dx="880" dy="470" grid="1" gridSize="10" guides="1" tooltips="1" connect="1" arrows="1" fold="1" page="1" pageScale="1" pageWidth="827" pageHeight="1169" math="0" shadow="0">
      <root>
        <mxCell id="WIyWlLk6GJQsqaUBKTNV-0" />
        <mxCell id="WIyWlLk6GJQsqaUBKTNV-1" parent="WIyWlLk6GJQsqaUBKTNV-0" />
        <mxCell id="PRXGpJEsiHeBL_kfTL_B-6" style="edgeStyle=orthogonalEdgeStyle;rounded=0;orthogonalLoop=1;jettySize=auto;html=1;exitX=0.5;exitY=1;exitDx=0;exitDy=0;exitPerimeter=0;entryX=0.5;entryY=0;entryDx=0;entryDy=0;" edge="1" parent="WIyWlLk6GJQsqaUBKTNV-1" source="PRXGpJEsiHeBL_kfTL_B-0" target="PRXGpJEsiHeBL_kfTL_B-1">
          <mxGeometry relative="1" as="geometry" />
        </mxCell>
        <mxCell id="PRXGpJEsiHeBL_kfTL_B-0" value="mulai" style="strokeWidth=2;html=1;shape=mxgraph.flowchart.terminator;whiteSpace=wrap;" vertex="1" parent="WIyWlLk6GJQsqaUBKTNV-1">
          <mxGeometry x="364" y="40" width="100" height="60" as="geometry" />
        </mxCell>
        <mxCell id="PRXGpJEsiHeBL_kfTL_B-7" style="edgeStyle=orthogonalEdgeStyle;rounded=0;orthogonalLoop=1;jettySize=auto;html=1;exitX=0.5;exitY=1;exitDx=0;exitDy=0;" edge="1" parent="WIyWlLk6GJQsqaUBKTNV-1" source="PRXGpJEsiHeBL_kfTL_B-1" target="PRXGpJEsiHeBL_kfTL_B-2">
          <mxGeometry relative="1" as="geometry" />
        </mxCell>
        <mxCell id="PRXGpJEsiHeBL_kfTL_B-1" value="menghitung luas lingkaran" style="shape=parallelogram;html=1;strokeWidth=2;perimeter=parallelogramPerimeter;whiteSpace=wrap;rounded=1;arcSize=12;size=0.23;" vertex="1" parent="WIyWlLk6GJQsqaUBKTNV-1">
          <mxGeometry x="364" y="140" width="100" height="60" as="geometry" />
        </mxCell>
        <mxCell id="PRXGpJEsiHeBL_kfTL_B-8" style="edgeStyle=orthogonalEdgeStyle;rounded=0;orthogonalLoop=1;jettySize=auto;html=1;exitX=0.5;exitY=1;exitDx=0;exitDy=0;" edge="1" parent="WIyWlLk6GJQsqaUBKTNV-1" source="PRXGpJEsiHeBL_kfTL_B-2" target="PRXGpJEsiHeBL_kfTL_B-3">
          <mxGeometry relative="1" as="geometry" />
        </mxCell>
        <mxCell id="PRXGpJEsiHeBL_kfTL_B-2" value="&lt;div&gt;PHI-22\7&lt;/div&gt;&lt;div&gt;D-10&lt;br&gt;&lt;/div&gt;" style="shape=parallelogram;html=1;strokeWidth=2;perimeter=parallelogramPerimeter;whiteSpace=wrap;rounded=1;arcSize=12;size=0.23;" vertex="1" parent="WIyWlLk6GJQsqaUBKTNV-1">
          <mxGeometry x="360" y="250" width="100" height="60" as="geometry" />
        </mxCell>
        <mxCell id="PRXGpJEsiHeBL_kfTL_B-9" style="edgeStyle=orthogonalEdgeStyle;rounded=0;orthogonalLoop=1;jettySize=auto;html=1;exitX=0.5;exitY=1;exitDx=0;exitDy=0;" edge="1" parent="WIyWlLk6GJQsqaUBKTNV-1" source="PRXGpJEsiHeBL_kfTL_B-3" target="PRXGpJEsiHeBL_kfTL_B-4">
          <mxGeometry relative="1" as="geometry" />
        </mxCell>
        <mxCell id="PRXGpJEsiHeBL_kfTL_B-3" value="LUAS O-PHI(22\7)DIKALI DIAMETER 10" style="rounded=1;whiteSpace=wrap;html=1;absoluteArcSize=1;arcSize=14;strokeWidth=2;" vertex="1" parent="WIyWlLk6GJQsqaUBKTNV-1">
          <mxGeometry x="360" y="380" width="100" height="100" as="geometry" />
        </mxCell>
        <mxCell id="PRXGpJEsiHeBL_kfTL_B-10" style="edgeStyle=orthogonalEdgeStyle;rounded=0;orthogonalLoop=1;jettySize=auto;html=1;exitX=1;exitY=0.5;exitDx=0;exitDy=0;" edge="1" parent="WIyWlLk6GJQsqaUBKTNV-1" source="PRXGpJEsiHeBL_kfTL_B-4" target="PRXGpJEsiHeBL_kfTL_B-5">
          <mxGeometry relative="1" as="geometry" />
        </mxCell>
        <mxCell id="PRXGpJEsiHeBL_kfTL_B-4" value="LUAS LINGKARAN" style="shape=parallelogram;html=1;strokeWidth=2;perimeter=parallelogramPerimeter;whiteSpace=wrap;rounded=1;arcSize=12;size=0.23;" vertex="1" parent="WIyWlLk6GJQsqaUBKTNV-1">
          <mxGeometry x="360" y="520" width="100" height="60" as="geometry" />
        </mxCell>
        <mxCell id="PRXGpJEsiHeBL_kfTL_B-5" value="FINISH" style="strokeWidth=2;html=1;shape=mxgraph.flowchart.start_1;whiteSpace=wrap;" vertex="1" parent="WIyWlLk6GJQsqaUBKTNV-1">
          <mxGeometry x="560" y="520" width="100" height="60" as="geometry" />
        </mxCell>
      </root>
    </mxGraphModel>
  </diagram>
</mxfile>
